<?xml version="1.0" standalone="no"?>
<!DOCTYPE svg PUBLIC "-//W3C//DTD SVG 20010904//EN"
 "http://www.w3.org/TR/2001/REC-SVG-20010904/DTD/svg10.dtd">
<svg version="1.0" xmlns="http://www.w3.org/2000/svg"
 width="126.000000pt" height="102.000000pt" viewBox="0 0 126.000000 102.000000"
 preserveAspectRatio="xMidYMid meet">

<g transform="translate(0.000000,102.000000) scale(0.100000,-0.100000)"
fill="#000000" stroke="none">
<path d="M335 866 c-192 -91 -202 -329 -23 -554 85 -107 274 -242 338 -242 75
0 288 169 378 301 67 99 98 242 73 336 -17 62 -68 123 -131 156 -49 26 -63 28
-132 25 -71 -3 -81 -6 -136 -45 -59 -41 -60 -42 -77 -23 -10 11 -40 31 -68 45
-68 34 -152 34 -222 1z m220 -50 c24 -15 53 -40 65 -56 l22 -30 54 49 c100 91
207 94 300 9 84 -78 93 -201 24 -338 -58 -116 -188 -243 -314 -310 l-57 -30
-42 21 c-135 68 -279 209 -336 328 -33 69 -36 84 -36 163 0 80 2 90 30 130 44
63 122 101 193 94 31 -3 71 -15 97 -30z"/>
<path d="M574 551 l-41 -126 -35 69 -35 70 -24 -42 c-23 -40 -26 -42 -73 -42
-40 0 -47 -3 -42 -16 3 -9 6 -18 6 -20 0 -2 22 -4 49 -4 40 0 53 4 65 22 9 12
18 20 20 17 2 -2 20 -38 39 -79 l34 -75 39 118 c27 83 41 113 46 100 4 -10 26
-79 49 -153 l41 -135 44 120 c25 66 47 127 50 135 4 10 12 1 25 -27 l18 -43
55 0 c45 0 57 4 66 20 10 19 8 20 -44 20 l-54 0 -27 65 c-16 36 -31 65 -35 65
-4 0 -27 -54 -50 -120 -24 -66 -44 -119 -45 -118 -2 2 -22 66 -45 143 -24 77
-46 145 -49 151 -3 6 -24 -45 -47 -115z"/>
</g>
</svg>
