<!DOCTYPE svg PUBLIC "-//W3C//DTD SVG 1.1//EN" "http://www.w3.org/Graphics/SVG/1.1/DTD/svg11.dtd">
<!-- Uploaded to: SVG Repo, www.svgrepo.com, Transformed by: SVG Repo Mixer Tools -->
<svg fill="#FF0000" width="108px" height="108px" viewBox="-1.7 0 20.4 20.4" xmlns="http://www.w3.org/2000/svg" class="cf-icon-svg" stroke="#FF0000" stroke-width="0.00020400000000000003">
<g id="SVGRepo_bgCarrier" stroke-width="0"/>
<g id="SVGRepo_tracerCarrier" stroke-linecap="round" stroke-linejoin="round"/>
<g id="SVGRepo_iconCarrier">
<path d="M16.417 10.283A7.917 7.917 0 1 1 8.5 2.366a7.916 7.916 0 0 1 7.917 7.917zm-6.804.01 3.032-3.033a.792.792 0 0 0-1.12-1.12L8.494 9.173 5.46 6.14a.792.792 0 0 0-1.12 1.12l3.034 3.033-3.033 3.033a.792.792 0 0 0 1.12 1.119l3.032-3.033 3.033 3.033a.792.792 0 0 0 1.12-1.12z"/>
</g>
</svg>