<?xml version="1.0" standalone="no"?>
<!DOCTYPE svg PUBLIC "-//W3C//DTD SVG 20010904//EN"
 "http://www.w3.org/TR/2001/REC-SVG-20010904/DTD/svg10.dtd">
<svg version="1.0" xmlns="http://www.w3.org/2000/svg"
 width="71.000000pt" height="72.000000pt" viewBox="0 0 71.000000 72.000000"
 preserveAspectRatio="xMidYMid meet">

<g transform="translate(0.000000,72.000000) scale(0.100000,-0.100000)"
fill="#000000" stroke="none">
<path d="M215 674 c-71 -18 -115 -68 -115 -131 0 -25 11 -78 24 -117 22 -63
43 -161 61 -277 8 -54 39 -89 79 -89 39 0 63 23 76 71 5 19 14 54 20 78 13 51
22 45 39 -24 26 -104 42 -125 94 -125 39 0 66 40 78 111 24 149 42 227 65 278
29 64 30 104 5 151 -37 69 -158 102 -233 64 -24 -13 -36 -14 -50 -5 -35 22
-93 28 -143 15z m81 -33 c17 -5 52 -25 78 -45 54 -41 106 -49 106 -17 0 14 -8
21 -27 23 -37 4 -40 26 -7 38 39 15 99 3 134 -27 43 -36 47 -78 17 -155 -23
-57 -47 -167 -62 -289 -4 -28 -14 -54 -25 -64 -19 -17 -21 -17 -39 -1 -12 11
-27 48 -36 89 -18 77 -29 97 -54 97 -31 0 -42 -18 -64 -101 -20 -78 -24 -84
-49 -87 -35 -4 -41 10 -61 143 -9 55 -27 136 -41 180 -43 134 -32 181 49 210
49 17 44 17 81 6z"/>
<path d="M212 605 c-45 -20 -67 -85 -29 -85 7 0 17 10 22 23 6 12 25 27 45 33
38 13 47 38 15 41 -11 2 -35 -4 -53 -12z"/>
</g>
</svg>
