<?xml version="1.0" standalone="no"?>
<!DOCTYPE svg PUBLIC "-//W3C//DTD SVG 20010904//EN"
 "http://www.w3.org/TR/2001/REC-SVG-20010904/DTD/svg10.dtd">
<svg version="1.0" xmlns="http://www.w3.org/2000/svg"
 width="100.000000pt" height="103.000000pt" viewBox="0 0 100.000000 103.000000"
 preserveAspectRatio="xMidYMid meet">

<g transform="translate(0.000000,103.000000) scale(0.100000,-0.100000)"
fill="#000000" stroke="none">
<path d="M514 846 c-64 -68 -86 -135 -91 -291 -5 -123 -7 -132 -35 -175 -23
-35 -28 -52 -24 -79 11 -70 83 -112 151 -89 76 26 101 107 52 171 -35 46 -68
114 -83 172 -31 113 -8 203 70 279 25 24 42 46 39 50 -15 15 -39 3 -79 -38z
m-12 -424 c61 -106 63 -110 49 -136 -25 -47 -83 -58 -125 -25 -34 26 -34 68
-1 107 13 16 27 48 31 71 8 47 8 47 46 -17z"/>
<path d="M87 543 c-4 -3 -7 -12 -7 -20 0 -10 27 -13 123 -13 107 0 126 -2 140
-18 22 -24 21 -27 -7 -65 -13 -18 -27 -42 -30 -54 -7 -21 -14 -22 -104 -25
-78 -2 -97 -6 -97 -18 0 -12 19 -16 94 -20 l95 -5 9 -35 c13 -51 42 -86 90
-109 47 -23 110 -27 154 -10 54 20 113 92 113 138 0 18 8 20 82 23 70 3 83 6
86 21 3 15 -6 17 -80 17 l-83 1 -32 56 c-36 61 -40 78 -20 90 6 4 68 10 137
13 102 4 125 8 125 20 0 13 -21 15 -133 15 l-134 0 -24 -28 c-32 -37 -30 -60
6 -111 53 -73 40 -156 -30 -204 -30 -20 -44 -23 -94 -20 -52 4 -63 8 -92 40
-55 61 -54 104 5 206 26 45 12 88 -35 108 -34 14 -244 20 -257 7z"/>
<path d="M300 156 c0 -8 12 -23 28 -34 82 -57 185 -63 272 -16 57 30 78 64 41
64 -11 0 -23 -5 -27 -11 -13 -21 -89 -49 -135 -49 -33 0 -64 9 -104 30 -64 34
-75 36 -75 16z"/>
</g>
</svg>
