<?xml version="1.0" standalone="no"?>
<!DOCTYPE svg PUBLIC "-//W3C//DTD SVG 20010904//EN"
 "http://www.w3.org/TR/2001/REC-SVG-20010904/DTD/svg10.dtd">
<svg version="1.0" xmlns="http://www.w3.org/2000/svg"
 width="115.000000pt" height="84.000000pt" viewBox="0 0 115.000000 84.000000"
 preserveAspectRatio="xMidYMid meet">

<g transform="translate(0.000000,84.000000) scale(0.100000,-0.100000)"
fill="#000000" stroke="none">
<path d="M525 738 c-11 -6 -35 -24 -53 -40 -42 -36 -66 -35 -125 2 -63 40
-109 40 -148 1 -19 -20 -29 -40 -29 -60 0 -41 23 -40 35 2 6 20 21 37 37 45
26 12 33 10 91 -22 35 -20 74 -36 87 -36 13 0 47 19 77 41 87 67 153 64 241
-12 43 -38 72 -37 148 6 62 35 64 35 94 20 20 -10 33 -26 37 -45 8 -40 33 -39
33 1 0 20 -10 40 -29 60 -40 40 -90 39 -151 -1 -54 -36 -79 -37 -117 -7 -60
49 -81 57 -145 57 -35 0 -72 -6 -83 -12z"/>
<path d="M575 661 c-59 -25 -70 -78 -40 -192 26 -101 28 -104 49 -96 14 5 14
11 0 54 -31 99 -36 137 -25 166 13 32 31 42 66 33 45 -11 50 -48 22 -153 -24
-91 -25 -103 -2 -103 15 0 55 144 55 198 0 69 -66 118 -125 93z"/>
<path d="M244 595 c-31 -47 6 -115 63 -115 12 0 33 5 46 11 44 20 81 -10 111
-88 24 -60 26 -75 18 -128 -4 -33 -4 -78 0 -100 9 -42 44 -101 66 -110 26 -10
23 25 -5 61 -27 36 -28 41 -25 138 2 90 -1 108 -25 166 -34 82 -38 87 -74 95
-21 5 -35 18 -49 45 -21 41 -36 50 -81 50 -19 0 -34 -8 -45 -25z m78 -22 c36
-32 9 -75 -30 -47 -32 22 -28 57 7 63 3 1 13 -6 23 -16z"/>
<path d="M877 609 c-9 -5 -23 -25 -31 -44 -10 -24 -23 -35 -44 -40 -39 -8 -44
-15 -77 -98 -25 -62 -27 -77 -22 -150 6 -83 -3 -122 -45 -179 -9 -13 -10 -20
-1 -29 13 -13 44 17 69 69 13 28 15 52 11 116 -5 71 -3 90 21 153 23 64 31 74
59 84 23 7 38 7 52 0 69 -37 148 41 107 104 -18 27 -65 34 -99 14z m71 -46 c4
-24 -32 -55 -54 -46 -32 12 0 78 35 71 9 -2 17 -13 19 -25z"/>
</g>
</svg>
