<!DOCTYPE svg PUBLIC "-//W3C//DTD SVG 1.1//EN" "http://www.w3.org/Graphics/SVG/1.1/DTD/svg11.dtd">
<!-- Uploaded to: SVG Repo, www.svgrepo.com, Transformed by: SVG Repo Mixer Tools -->
<svg height="800px" width="800px" version="1.1" id="_x32_" xmlns="http://www.w3.org/2000/svg" xmlns:xlink="http://www.w3.org/1999/xlink" viewBox="0 0 512 512" xml:space="preserve" fill="#000000">
<g id="SVGRepo_bgCarrier" stroke-width="0"/>
<g id="SVGRepo_tracerCarrier" stroke-linecap="round" stroke-linejoin="round"/>
<g id="SVGRepo_iconCarrier"> <style type="text/css"> .st0{fill:#000000;} </style> <g> <path class="st0" d="M432.343,250.966V224.85h-34.597v26.116c0,18.513-3.565,36.199-10.048,52.413l26.124,26.13 C425.667,305.872,432.329,279.194,432.343,250.966z"/> <path class="st0" d="M200.745,89.854c0.022-15.257,6.181-28.976,16.214-39.052c10.076-10.047,23.773-16.192,39.031-16.213 c15.279,0.021,28.984,6.166,39.052,16.213c10.054,10.076,16.214,23.795,16.214,39.052v137.079l34.029,34.036 c0.38-3.277,0.568-6.626,0.568-10.004V89.854C345.815,40.26,305.606,0.035,255.989,0c-47.001,0.035-85.586,36.185-89.496,82.18 l34.251,34.251V89.854z"/> <path class="st0" d="M393.672,360.943l-24.615-24.614l-37.22-37.22l-25.462-25.463l-105.63-105.63l-34.589-34.59L84.601,51.873 L58.808,77.666l107.348,107.347v65.952c0.029,49.596,40.26,89.804,89.833,89.84c18.685-0.014,35.962-5.842,50.335-15.617 l37.112,37.105c-24.133,18.995-54.41,30.408-87.447,30.408c-39.096,0-74.439-15.869-100.161-41.554 c-25.721-25.743-41.575-61.087-41.575-100.182V224.85H79.643v26.116c0.036,89.445,66.901,163.274,153.292,174.658V512h46.131 v-86.377c33.526-4.42,64.07-18.268,88.943-38.758l59.391,59.391l25.793-25.793L393.672,360.943z M255.989,306.209 c-15.258-0.014-28.977-6.18-39.031-16.213c-10.032-10.054-16.192-23.774-16.214-39.031v-31.362l80.455,80.454 C273.639,303.96,265.102,306.203,255.989,306.209z"/> </g> </g>
</svg>