<!DOCTYPE svg PUBLIC "-//W3C//DTD SVG 1.1//EN" "http://www.w3.org/Graphics/SVG/1.1/DTD/svg11.dtd">
<!-- Uploaded to: SVG Repo, www.svgrepo.com, Transformed by: SVG Repo Mixer Tools -->
<svg width="800px" height="800px" viewBox="0 0 24 24" fill="none" xmlns="http://www.w3.org/2000/svg">
<g id="SVGRepo_bgCarrier" stroke-width="0"/>
<g id="SVGRepo_tracerCarrier" stroke-linecap="round" stroke-linejoin="round"/>
<g id="SVGRepo_iconCarrier"> <path d="M15 9.4V5C15 3.34315 13.6569 2 12 2C10.8224 2 9.80325 2.67852 9.3122 3.66593M12 19V22M8 22H16M3 3L21 21M5.00043 10C5.00043 10 3.50062 19 12.0401 19C14.51 19 16.1333 18.2471 17.1933 17.1768M19.0317 13C19.2365 11.3477 19 10 19 10M12 15C10.3431 15 9 13.6569 9 12V9L14.1226 14.12C13.5796 14.6637 12.8291 15 12 15Z" stroke="#000000" stroke-width="0.744" stroke-linecap="round" stroke-linejoin="round"/> </g>
</svg>