<?xml version="1.0" standalone="no"?>
<!DOCTYPE svg PUBLIC "-//W3C//DTD SVG 20010904//EN"
 "http://www.w3.org/TR/2001/REC-SVG-20010904/DTD/svg10.dtd">
<svg version="1.0" xmlns="http://www.w3.org/2000/svg"
 width="97.000000pt" height="88.000000pt" viewBox="0 0 97.000000 88.000000"
 preserveAspectRatio="xMidYMid meet">

<g transform="translate(0.000000,88.000000) scale(0.100000,-0.100000)"
fill="#000000" stroke="none">
<path d="M445 800 c-12 -19 10 -32 51 -28 27 2 39 8 39 18 0 19 -79 27 -90 10z"/>
<path d="M440 725 c0 -11 12 -15 50 -15 38 0 50 4 50 15 0 11 -12 15 -50 15
-38 0 -50 -4 -50 -15z"/>
<path d="M447 674 c-4 -4 -7 -14 -7 -21 0 -11 12 -13 48 -11 34 2 47 7 47 18
0 10 -12 16 -40 18 -23 2 -44 0 -48 -4z"/>
<path d="M286 585 c-73 -49 -132 -142 -160 -251 -20 -76 -20 -125 -2 -169 19
-44 45 -57 135 -65 131 -13 151 7 151 151 0 88 1 92 30 119 30 28 32 38 32
140 -1 44 7 70 19 70 5 0 9 -34 9 -75 0 -81 16 -127 50 -145 18 -10 20 -21 20
-113 1 -106 6 -124 46 -145 25 -13 170 0 204 18 88 47 46 288 -73 417 -47 51
-84 73 -125 73 -45 0 -52 -15 -52 -117 0 -51 -4 -93 -9 -93 -16 0 -21 30 -21
121 l0 89 -50 0 -50 0 0 -94 c0 -71 -4 -97 -15 -106 -13 -11 -15 -2 -15 74 0
48 -5 96 -10 107 -15 27 -69 25 -114 -6z m84 -113 l0 -97 -44 -23 c-47 -25
-76 -69 -52 -78 7 -3 27 9 44 25 17 17 35 31 41 31 18 0 14 -175 -4 -190 -23
-19 -174 2 -192 26 -18 24 -16 109 3 175 33 113 124 229 179 229 25 0 25 0 25
-98z m328 65 c42 -38 84 -107 108 -176 26 -73 31 -167 11 -195 -14 -19 -143
-42 -183 -32 -23 6 -24 10 -24 100 0 90 1 94 20 89 11 -3 29 -16 39 -29 23
-29 41 -31 41 -5 0 21 -47 66 -80 76 -18 6 -20 15 -20 107 l0 101 32 -7 c18
-3 43 -16 56 -29z"/>
</g>
</svg>
