<?xml version="1.0" standalone="no"?>
<!DOCTYPE svg PUBLIC "-//W3C//DTD SVG 20010904//EN"
 "http://www.w3.org/TR/2001/REC-SVG-20010904/DTD/svg10.dtd">
<svg version="1.0" xmlns="http://www.w3.org/2000/svg"
 width="108.000000pt" height="73.000000pt" viewBox="0 0 108.000000 73.000000"
 preserveAspectRatio="xMidYMid meet">

<g transform="translate(0.000000,73.000000) scale(0.100000,-0.100000)"
fill="#000000" stroke="none">
<path d="M555 663 c-22 -8 -69 -18 -105 -22 -73 -7 -110 -26 -136 -70 -14 -23
-27 -31 -63 -36 -25 -4 -59 -14 -74 -23 -33 -19 -67 -79 -67 -116 0 -14 -11
-42 -25 -62 -43 -63 -29 -135 31 -160 21 -9 46 -13 57 -10 11 3 28 1 38 -5 33
-17 110 -27 142 -18 17 5 40 18 53 30 21 20 24 20 46 5 12 -9 30 -16 39 -16 9
0 22 -7 29 -14 6 -8 28 -20 48 -27 20 -6 64 -24 96 -40 69 -34 123 -37 181
-10 47 21 52 27 95 111 38 75 43 85 70 125 53 81 -7 212 -105 231 -20 3 -37
13 -40 24 -9 27 -52 51 -96 55 -22 1 -48 10 -57 18 -20 18 -85 47 -104 47 -7
-1 -31 -8 -53 -17z m127 -63 c24 -24 38 -30 74 -30 45 0 84 -25 84 -54 0 -8
16 -15 42 -19 28 -4 51 -15 72 -36 26 -27 31 -39 31 -81 0 -40 -5 -54 -27 -77
-16 -16 -28 -38 -28 -49 0 -27 -19 -44 -48 -44 -14 0 -33 -11 -44 -25 -21 -27
-52 -32 -93 -13 -21 10 -27 9 -39 -7 -9 -13 -18 -16 -32 -10 -10 5 -40 7 -66
6 -39 -2 -48 1 -58 19 -10 20 -9 25 13 44 14 11 30 31 36 44 7 12 18 22 25 22
7 0 25 12 40 26 31 32 38 98 9 92 -9 -2 -20 -17 -25 -35 -6 -24 -17 -35 -42
-44 -22 -8 -39 -23 -47 -43 -14 -30 -15 -31 -81 -30 -38 0 -68 -3 -68 -7 0 -4
-12 -21 -26 -38 -22 -26 -33 -31 -70 -31 -25 0 -60 7 -80 15 -19 8 -51 14 -71
13 -63 -2 -83 56 -38 110 15 18 25 42 25 62 0 71 42 109 120 110 55 0 56 1 69
35 20 56 56 78 121 72 41 -3 62 0 85 14 47 29 101 25 137 -11z"/>
<path d="M552 490 c-12 -5 -25 -16 -28 -25 -4 -10 -19 -15 -46 -15 -38 0 -78
-26 -89 -58 -3 -9 -11 -9 -35 -1 -37 14 -77 -2 -107 -43 -29 -40 -11 -49 19
-10 28 36 75 43 109 18 18 -13 21 -11 36 25 19 41 50 56 94 45 14 -4 25 -2 25
3 0 20 33 41 66 41 35 0 46 13 18 24 -20 8 -34 7 -62 -4z"/>
<path d="M812 347 c-19 -19 -25 -20 -43 -9 -15 10 -25 10 -32 3 -19 -19 39
-37 77 -23 18 7 44 12 58 12 26 0 56 25 44 37 -3 3 -17 0 -31 -7 -18 -10 -28
-10 -38 -2 -10 9 -18 6 -35 -11z"/>
<path d="M630 260 c0 -16 55 -39 79 -33 11 3 28 0 36 -7 16 -13 45 -7 45 10 0
5 -9 10 -20 10 -10 0 -23 7 -28 16 -6 11 -11 13 -16 5 -9 -14 -53 -15 -61 -1
-8 13 -35 13 -35 0z"/>
</g>
</svg>
