<?xml version="1.0" standalone="no"?>
<!DOCTYPE svg PUBLIC "-//W3C//DTD SVG 20010904//EN"
 "http://www.w3.org/TR/2001/REC-SVG-20010904/DTD/svg10.dtd">
<svg version="1.0" xmlns="http://www.w3.org/2000/svg"
 width="86.000000pt" height="84.000000pt" viewBox="0 0 86.000000 84.000000"
 preserveAspectRatio="xMidYMid meet">

<g transform="translate(0.000000,84.000000) scale(0.100000,-0.100000)"
fill="#000000" stroke="none">
<path d="M373 738 c-84 -18 -134 -101 -112 -183 7 -26 28 -56 58 -86 26 -25
45 -51 43 -57 -5 -17 -33 -15 -61 4 -21 15 -26 15 -61 -1 -31 -14 -42 -15 -60
-5 -21 11 -22 17 -16 71 3 32 15 85 26 116 30 82 34 103 21 103 -16 0 -49 -57
-65 -115 -48 -167 -19 -316 85 -438 38 -44 79 -62 79 -34 0 6 -18 30 -40 51
-44 43 -100 145 -100 181 0 18 4 21 25 17 14 -2 36 3 51 13 24 15 27 15 51 0
17 -12 35 -15 59 -10 43 8 43 -1 4 -88 -35 -78 -36 -88 -12 -110 32 -29 68
-21 103 22 l31 39 46 -24 c56 -30 85 -30 142 -1 68 33 95 89 95 192 0 67 -4
89 -28 136 -15 31 -47 75 -71 97 -42 39 -109 68 -128 56 -5 -4 -22 6 -37 20
-35 34 -76 45 -128 34z m109 -70 c20 -22 31 -28 47 -23 58 18 154 -62 185
-152 35 -101 9 -225 -53 -257 -68 -36 -147 -6 -153 57 -4 42 -30 43 -39 1 -6
-32 -65 -114 -81 -114 -21 0 -16 33 16 103 34 75 36 77 71 77 20 0 45 5 56 10
15 9 26 6 48 -10 16 -11 36 -20 45 -20 26 0 18 24 -14 43 -16 10 -30 22 -30
26 0 4 14 20 30 36 17 16 30 35 30 42 0 27 -36 11 -70 -32 -39 -51 -84 -70
-136 -61 -43 9 -44 22 -1 30 17 3 47 15 65 26 29 18 33 25 30 57 -4 47 -26 55
-34 14 -18 -89 -140 -74 -188 22 -57 117 91 222 176 125z"/>
</g>
</svg>
